<svg viewBox="0 0 500 500" xmlns:xlink="http://www.w3.org/1999/xlink" xmlns="http://www.w3.org/2000/svg"><defs><style>.cls-1,.cls-15,.cls-5{fill:none;}.cls-2{fill:url(#未命名的渐变_322);}.cls-3{fill:url(#未命名的渐变_326);}.cls-4{fill:url(#未命名的渐变_325);}.cls-5{stroke:#ffefd9;stroke-width:0.5px;}.cls-6{fill:url(#未命名的渐变_322-2);}.cls-7{fill:url(#未命名的渐变_322-3);}.cls-8{fill:url(#未命名的渐变_322-4);}.cls-9{fill:#324b95;}.cls-10{fill:url(#未命名的渐变_322-5);}.cls-11{fill:url(#未命名的渐变_322-6);}.cls-12{fill:#372732;fill-opacity:0.36;}.cls-13{fill:url(#未命名的渐变_322-7);}.cls-14{fill:url(#未命名的渐变_322-8);}.cls-15{stroke:#fcdf00;stroke-width:3.5px;}.cls-16{fill:url(#未命名的渐变_321);}.cls-17{fill:url(#未命名的渐变_322-9);}.cls-18{fill:url(#未命名的渐变_323);}.cls-19{fill:url(#未命名的渐变_323-2);}.cls-20{fill:url(#未命名的渐变_321-2);}.cls-21{fill:url(#未命名的渐变_322-10);}.cls-22{fill:url(#未命名的渐变_323-3);}.cls-23{fill:url(#未命名的渐变_325-2);}.cls-24{fill:url(#未命名的渐变_325-3);}.cls-25{fill:#fcdf00;}.cls-26{fill:url(#未命名的渐变_326-2);}.cls-27{fill:url(#未命名的渐变_327);}.cls-28{fill:url(#未命名的渐变_328);}</style><linearGradient gradientUnits="userSpaceOnUse" gradientTransform="translate(105611.75 49520.15) scale(85.74 94.39)" y2="-522" x2="-1227.09" y1="-524.07" x1="-1226.65" id="未命名的渐变_322"><stop stop-color="#85c0f8" offset="0"></stop><stop stop-color="#0058af" offset="1"></stop></linearGradient><linearGradient gradientUnits="userSpaceOnUse" gradientTransform="matrix(1, 0, 0, -1, 1590, 1426)" y2="1269.08" x2="-1251.17" y1="1283.73" x1="-1277.71" id="未命名的渐变_326"><stop stop-color="#ffcdac" offset="0"></stop><stop stop-color="#ffd431" offset="1"></stop></linearGradient><linearGradient gradientUnits="userSpaceOnUse" gradientTransform="translate(26674.73 19865.07) scale(18.95 35.95)" y2="-548.69" x2="-1389.08" y1="-549.73" x1="-1388.99" id="未命名的渐变_325"><stop stop-color="#e18c57" offset="0"></stop><stop stop-color="#915f83" offset="1"></stop></linearGradient><linearGradient xlink:href="#未命名的渐变_322" gradientTransform="matrix(1, 0, 0, -1, 1493, 1426)" y2="1209.87" x2="-1154.01" y1="1257.78" x1="-1220.76" id="未命名的渐变_322-2"></linearGradient><linearGradient xlink:href="#未命名的渐变_322" gradientTransform="translate(69540.86 38261.67) scale(55.94 72.18)" y2="-526.95" x2="-1236.59" y1="-528.77" x1="-1237.3" id="未命名的渐变_322-3"></linearGradient><linearGradient xlink:href="#未命名的渐变_322" gradientTransform="matrix(13.95, -1.22, 0.35, 4.05, 18964.21, 2245.14)" y2="-911.03" x2="-1311.31" y1="-911.44" x1="-1313.05" id="未命名的渐变_322-4"></linearGradient><linearGradient xlink:href="#未命名的渐变_322" gradientTransform="matrix(1, 0, 0, -1, 1493, 1426)" y2="1190.13" x2="-1148.84" y1="1231.02" x1="-1186.18" id="未命名的渐变_322-5"></linearGradient><linearGradient xlink:href="#未命名的渐变_322" gradientTransform="matrix(1, 0, 0, -1, 1493, 1426)" y2="1143.46" x2="-1185.65" y1="1192.42" x1="-1235.69" id="未命名的渐变_322-6"></linearGradient><linearGradient xlink:href="#未命名的渐变_322" gradientTransform="matrix(1, 0, 0, -1, 1493, 1426)" y2="1194.18" x2="-1123.08" y1="1233.87" x1="-1165.96" id="未命名的渐变_322-7"></linearGradient><linearGradient xlink:href="#未命名的渐变_322" gradientTransform="matrix(1, 0, 0, -1, 1493, 1426)" y2="1167.48" x2="-1132.53" y1="1167.48" x1="-1178.14" id="未命名的渐变_322-8"></linearGradient><linearGradient gradientUnits="userSpaceOnUse" gradientTransform="matrix(203.77, -8.27, -8.27, 46.41, 251967.25, 3918.93)" y2="-300.24" x2="-1247.36" y1="-300.21" x1="-1246.99" id="未命名的渐变_321"><stop stop-color="#261973" offset="0"></stop><stop stop-color="#7494be" offset="1"></stop></linearGradient><linearGradient xlink:href="#未命名的渐变_322" gradientTransform="matrix(1, -0.05, -0.05, -1, 1506.87, 1602.11)" y2="1336.88" x2="-1067.1" y1="1393.83" x1="-1215.72" id="未命名的渐变_322-9"></linearGradient><linearGradient gradientUnits="userSpaceOnUse" gradientTransform="matrix(29.96, 0.72, 0.72, 43.71, 39200.27, 14333.95)" y2="-299.24" x2="-1290.04" y1="-300.24" x1="-1290.04" id="未命名的渐变_323"><stop stop-color="#acffcf" offset="0"></stop><stop stop-color="#ffe274" offset="1"></stop></linearGradient><linearGradient xlink:href="#未命名的渐变_323" gradientTransform="matrix(31.72, 0.58, 0.58, 42.74, 41304.57, 13897.02)" y2="-300.22" x2="-1287.29" y1="-301.22" x1="-1287.29" id="未命名的渐变_323-2"></linearGradient><linearGradient xlink:href="#未命名的渐变_321" gradientTransform="matrix(62.17, -1.62, -1.62, 31.42, 78351.14, 8188.46)" y2="-315.71" x2="-1264.95" y1="-315.39" x1="-1264.6" id="未命名的渐变_321-2"></linearGradient><linearGradient xlink:href="#未命名的渐变_322" gradientTransform="matrix(61.53, -1.69, -1.69, 29.43, 77534.43, 7567.96)" y2="-318.76" x2="-1265.01" y1="-319.15" x1="-1265.32" id="未命名的渐变_322-10"></linearGradient><linearGradient xlink:href="#未命名的渐变_323" gradientTransform="matrix(41.01, -0.91, -0.91, 23.64, 52329.91, 6987.42)" y2="-331.04" x2="-1278.07" y1="-332.04" x1="-1278.07" id="未命名的渐变_323-3"></linearGradient><linearGradient xlink:href="#未命名的渐变_325" gradientTransform="translate(29070.4 13679.69) scale(22.38 23.55)" y2="-570.81" x2="-1279.27" y1="-571.85" x1="-1278.97" id="未命名的渐变_325-2"></linearGradient><linearGradient xlink:href="#未命名的渐变_325" gradientTransform="translate(33430.99 8635.51) scale(26.16 13.7)" y2="-616.88" x2="-1268.96" y1="-617.29" x1="-1269.1" id="未命名的渐变_325-3"></linearGradient><linearGradient xlink:href="#未命名的渐变_326" gradientTransform="matrix(1, 0, 0, -1, 1309.28, 1345)" y2="1283.19" x2="-868.96" y1="1302.58" x1="-924.58" id="未命名的渐变_326-2"></linearGradient><linearGradient gradientUnits="userSpaceOnUse" gradientTransform="translate(491549.5 154176.77) scale(477.87 259.31)" y2="-593.1" x2="-1028.68" y1="-593.44" x1="-1027.76" id="未命名的渐变_327"><stop stop-color="#b7e0fe" offset="0"></stop><stop stop-color="#d0fbff" offset="1"></stop></linearGradient><linearGradient gradientUnits="userSpaceOnUse" gradientTransform="matrix(1, 0, 0, -1, 1309.28, 1345)" y2="873.97" x2="-961.86" y1="946.6" x1="-1334.85" id="未命名的渐变_328"><stop stop-color="#c3e8ff" offset="0"></stop><stop stop-color="#5cb3fc" offset="1"></stop></linearGradient></defs><g id="图层_2"><g id="Layer_1"><g id="Surfing"><rect height="500" width="500" class="cls-1" id="Rectangle"></rect><g id="Group"><g id="IMG_0040"><path d="M366.6,167l40.2,18.9a113.37,113.37,0,0,0,5.4,14.1c3.3,7.3,15,26.7,14.8,30.4s0,8.5-.4,11.3-.3,4.9,1,3.4,1.9-6.2,1.9-6.2,2.6-2,4.1-.4,5.6,8.7,6.4,8.6-1.5-6.5-1.5-6.5,4.2,5.2,4.8,4.9-2.7-6-2.7-6,4.7,5.8,5.5,5-2.8-5.6-2.8-5.6,3.9,4.4,4.4,3.6-3.9-5.5-4.8-6.5-9.7-4.4-11.1-6-9.4-33.4-11-38.9-3.2-8.8-6.7-11.5c-8.6-6.4-45.1-27.1-45.1-27.1C361.8,152.3,359.3,164,366.6,167Z" class="cls-2" id="Path"></path><g id="Group-34"><path d="M354.3,131.4s3.8-5,3.1-8.4c-.3-1.8-2.6-2.2-2.6-2.2s1.4-2.8.4-3.5c-1.3-1-3.7.8-3.7.8s-3.9-6-10-5.1-6.3,7.8-8.4,9.6-6.5,1.7-13.5,5.3-8.2,11.6-5,14.5c4,3.6-1.1,7.7-3.6,7.6s-6.4.4-8,3.9,2.5,5.6,0,7.3-9.7,1.6-11.9,5.2-.8,11.4,4.5,14.8,10.9,9,22,2.9,11.1-14.4,22.3-16.1,6.4-18,6.7-24S354.3,131.4,354.3,131.4Z" class="cls-3" id="Path-2"></path><path d="M339.8,156.1a13.71,13.71,0,0,0,2.8-6.2c.7-4.6-.4-10.4-.8-11s-1.2,0-2,0c-1.9,0-3.8-6.7-1.9-7.4s3,0,3.9,2,1.3,1.5,1.6,1.3-.8-5.3.2-5.4,1.7-.8,3.2-2.9,1.9-3,4.4-3.2,3.6,1.7,4.3,4.7,1.3,10.6-.8,12.5-6,2.3-6,2.3,1.5,10.5,4.6,12-5.5,4.4-5.5,4.4Z" class="cls-4" id="Path-3"></path><path d="M348,124.8c-1.3-4.6-3.2-6.1-5.9-4.6-4,2.3-3.2,9.7-14.5,12.3s6,14.1,1.9,16.7-19.8,5.1-17.5,10c1.5,3.2.8,6.2-2.3,8.9" class="cls-5" id="Path-2-2"></path></g><path d="M219,185.1c.9,1.2,7.5-2,7.5-2s-3.5,4-4.6,5.6.7,1.8,2.3.4,3.8-3.2,5.3-4.7,7.3-1.7,7.1-.9a9.84,9.84,0,0,1-2.2,3.9c-1.2,1.1-4,2.8-2.9,3.8s5.4-1.4,7.3-2.6,4.4-6.5,4.4-6.5,48.1,4.3,52.7,3.2,35.9-17,39-18.8c6.7-3.9,2.6-14.7-6-10.9s-27.2,18-31.1,18.7-8.3-1.6-16-.6-32.8,3.6-38.6,4.2-13.7,1.4-16.2,2.5C224.5,181.2,218.1,183.9,219,185.1Z" class="cls-6" id="Path-4"></path><path d="M330.8,154.9c-1,.8-4.2,19.5,5.1,30.4s8.3,13.7,9.5,18.8-3.4,20,3.4,20,42.6-.9,35.7-12.3-11.9-12.9-14.2-19.7-2.6-17.9,1.5-27.9c4.3-10.6-2.7-11.7-6.2-12.1s-11.1,0-17.9.6S331.8,154.1,330.8,154.9Z" class="cls-7" id="Path-5"></path><path d="M341.4,151.6l9.6-1.1a1,1,0,0,1,1.1.7l1.1,3.2h0l-13.9,1.2,1.4-3.4A.73.73,0,0,1,341.4,151.6Z" class="cls-8" id="Rectangle-2"></path><path d="M352.9,209.7s-42.5,7-49.7,13c-6.3,5.2-4.1,11.7,5.1,11.2s48.4-1.8,48.4-1.8C370.4,229.3,368.9,208.6,352.9,209.7Z" class="cls-9" id="Path-6"></path><path d="M352.9,209.7s-42.5,7-49.7,13c-6.3,5.2-4.1,11.7,5.1,11.2s48.4-1.8,48.4-1.8C370.4,229.3,368.9,208.6,352.9,209.7Z" class="cls-10" id="Path-7"></path><path d="M312.3,231.2s-3,11.9-10.3,18.4-31.4,27.5-37.8,34.5-5.8,6.9-8.1,7.2-3.4-1.3-.8-4,45.9-61.8,45.9-61.8C306.3,220.5,313.1,224.7,312.3,231.2Z" class="cls-11" id="Path-8"></path><path d="M356,214.8c13.9,2.7,7.5,15.9.7,17.2,0,0-32.2,1-45.1,1.6-1.3,3.8-4.3,11.3-9.6,16-5.9,5.3-22.8,20-32.4,29.1l-2.3.6,43.4-45.5c6.8-2,10.9-5.2,12.2-9.6.3-.9.6-2.2,1.1-3.8C334.7,216.7,347.9,213.2,356,214.8Z" class="cls-12" id="Combined-Shape"></path><path d="M383.3,209.4s10.3,13.8-.2,20.3-38.6,5.2-38.6,5.2-15.4.9-14.1-8.8S383.3,209.4,383.3,209.4Z" class="cls-13" id="Path-9"></path><path d="M343.2,228.9s6.3,8,7.1,15.3,8.3,46.2,7.4,47.7-3,2.5-4.6.4-27.4-63.6-22.1-67.7C336.2,220.7,343.2,228.9,343.2,228.9Z" class="cls-14" id="Path-10"></path><path d="M372.6,209.7c4.5,4.7,5.7,7.3,3.7,7.9-3,.9-34.6,4.4-36.4,12q-1.8,7.65,12.5,52.1" class="cls-15" id="Path-169"></path><path d="M383,229.6c-8.6,5.3-28.8,5.4-36,5.3a25.09,25.09,0,0,1,3.2,9.3c.6,5.7,5.1,29.6,6.8,41.3-11.5-30.8-15.8-48.1-13.1-51.9s17.2-7.4,43.6-11.1C387.4,225.2,386.1,227.7,383,229.6Z" class="cls-12" id="Combined-Shape-2"></path><g id="Group-35"><g id="Group-36"><path d="M215.31,289.21c103.25-20.74,162.55-18.54,205.12,12.28-40.5,24.05-112,23.19-201.5,11Z" class="cls-16" id="Path-11"></path><path d="M215.41,291.2c103.26-20.73,154.32-17,205,10.29-40.5,24.05-111.93,25.19-201.4,13Z" class="cls-17" id="Path-12"></path><path d="M344.82,278.51l-5.56,6.6,5.88,3.3L333.83,298,344,302l-12.72,9.48,9.78,5-5.84,5.22c-4.89.25-9.9.32-15.1.39l5.8-5.81-9.37-4.92,10.38-8.45-8.63-4.16,11.69-10-5.66-2.91,7.5-7.81C336.29,278.16,340.6,278.23,344.82,278.51Z" class="cls-18" id="Combined-Shape-3"></path><path d="M309.57,278.46,302.31,287l5.88,3.3L296.88,300l10.12,4-12.72,9.48,9.78,5-3.83,3.41c-4.72-.16-9.44-.41-14.25-.66l2.94-3-9.37-4.91,10.38-8.46-8.63-4.15,11.69-10-5.66-2.91,8.07-8.43C300.29,279,305,278.7,309.57,278.46Z" class="cls-19" id="Combined-Shape-4"></path><path d="M256.6,303.36s-22.69,21.72-40.43,27.26-22.16,5.16-18.37,1S224.1,306,224.1,306c15.26-3,26-4.87,32.35-5.6C257.34,300.22,257.39,301.22,256.6,303.36Z" class="cls-20" id="Path-13"></path><path d="M256.45,300.37S233.7,323.09,216,328.63s-22.16,5.16-18.37,1S223.89,304,223.89,304Z" class="cls-21" id="Path-14"></path><path d="M238.92,302.29a61.35,61.35,0,0,1-20.41,17.49c-7,3.47-14.07,6.75-19.4,8.23,6.28-6.34,24.88-24,24.88-24Z" class="cls-22" id="Path-15"></path></g></g><path d="M429.7,223.6c1.1,3.6,1.9,6.2,2.3,6.6,1.4,1.5,10.2,5,11.1,6s5.3,5.8,4.8,6.5-4.4-3.6-4.4-3.6,3.5,4.8,2.8,5.6-5.5-5-5.5-5,3.3,5.7,2.7,6-4.8-4.9-4.8-4.9,2.3,6.4,1.5,6.5-4.9-7-6.4-8.6-4.1.4-4.1.4-.7,4.6-1.9,6.2-1.3-.6-1-3.4.3-7.6.4-11.3a14.84,14.84,0,0,0-1.4-4.5Z" class="cls-23" id="Path-16"></path><path d="M243.2,177.7l1.9,4.5c-1.3-.1-2-.2-2-.2s-2.5,5.3-4.4,6.5-6.1,3.6-7.3,2.6,1.7-2.7,2.9-3.8a8.69,8.69,0,0,0,2.2-3.9c.2-.8-5.6-.6-7.1.9s-3.7,3.3-5.3,4.7-3.4,1.2-2.3-.4,4.6-5.6,4.6-5.6-6.6,3.2-7.5,2,5.5-3.8,8-4.9,10.4-1.8,16.3-2.4Z" class="cls-24" id="Path-17"></path><path d="M371.7,211.5l3.2-1.8v-.3c-4.6-7.4-7.4-9.5-9.5-17.9s-1.9-13.7.5-24.5l-1.9-.6c-2.6,11.3-3.2,19.8-1.8,25.6C363.7,197.5,366.4,203.2,371.7,211.5Z" class="cls-25" id="Path-170"></path></g><circle r="21.5" cy="53.5" cx="416.48" class="cls-26" id="Oval"></circle><path d="M173.28,264.7c-22.7-28.2-44.1-43.3-72.1-31-44,19.3-30,114-22.6,114s9.9-22.2,36.2-38Q141,294,168.58,298.1q-40.5,38.85-20.2,59.1c20.2,20.3,37.4-10.5,60.7-9.3s24.1,20.7,48.6,18.8,26.2-19.2,50.3-17.1c19.2,1.6,25.2,23.8,52.5,27,21.3,2.5,63.6-37.6,117.1,0,1.9,1.3,4.4,3.2,7.7,5.6a4.79,4.79,0,0,1,2,4v51.5a5,5,0,0,1-5,5,5.08,5.08,0,0,1-3.6-1.5c-13.6-13.8-19.1-28.4-16.7-43.7-14.7,6.9-23.9,13.5-27.6,20.1l-.2.4c-18.1,33.4-43.5,33.8-66.2,13.9l-.7-.6c-15.5-13.9-33.4-20.3-57.1-4.1l-.7.5c-24,16.9-41.5,19.4-69.3-1.4s-52.4,13.4-75.1,17.6-37.4-17.6-31.7-46.4c-49,0-43,48.4-72.9,48.4q-39.15,0-23.8-78.1c-9,.8-20.3,6.2-23.8,5.2s-22.1-179.6,80.9-186C133.38,184.6,168.48,195.2,173.28,264.7Z" class="cls-27" id="Path-18"></path><path d="M15.28,385l8.2-1.1h0q-5.4,78.15,33.7,78.1c29.9,0,29.9-33.8,66.9-48.4,0,30.1,15,50.6,37.7,46.4s47.3-38.5,75.1-17.6,45.2,18.3,69.3,1.4,42.2-10.4,57.8,3.6c22.9,20.5,50.5,22.3,68.8-11.5,5.4-10,12.4-17.6,20.9-22.9q10.5,41.55,24.7,50.3a42.31,42.31,0,0,0,7.2,3.3,6,6,0,0,1,3.8,5.6v7.3a11.5,11.5,0,0,1-11.5,11.5H49.58a40,40,0,0,1-40-40v-.3l.5-59.9A5.91,5.91,0,0,1,15.28,385Z" class="cls-28" id="Path-790"></path></g></g></g></g></svg>