<svg t="1650010867559" class="icon" viewBox="0 0 1035 1024" version="1.1" xmlns="http://www.w3.org/2000/svg" p-id="19980" width="200" height="200"><path d="M599.981782 307.990965a120.976734 120.976734 0 0 0-75.9317 27.126963 119.215861 119.215861 0 0 0 75.979291 211.542715 120.714983 120.714983 0 0 0 75.931699-26.889006 119.334839 119.334839 0 0 0-75.97929-211.780672z m30.410752 156.336968a48.400212 48.400212 0 0 1-67.508063-6.662763 47.757731 47.757731 0 0 1 6.757945-67.341494 48.471599 48.471599 0 0 1 30.339366-10.708012 47.781527 47.781527 0 0 1 30.410752 84.712269zM1033.775225 70.27311A72.05302 72.05302 0 0 0 965.600885 1.027969s-10.351078-0.475912-28.554697-0.475912c-104.010485 0-362.906407 16.894863-520.147607 173.231831a771.428943 771.428943 0 0 0-75.384401 87.329782 57.513919 57.513919 0 0 0-6.234442 1.427735L49.066488 359.627376a71.386743 71.386743 0 0 0-27.698056 118.264038l153.14836 152.291719a149.341067 149.341067 0 0 0-57.109395 32.837902 193.029754 193.029754 0 0 0-44.735692 150.150117 114.908861 114.908861 0 0 1-12.825819 28.554697 71.101196 71.101196 0 0 0-5.829917 66.627627 72.05302 72.05302 0 0 0 52.159914 42.356134 113.219375 113.219375 0 0 0 21.963321 2.141603 129.162414 129.162414 0 0 0 61.202235-16.418951 76.812136 76.812136 0 0 0 21.891934 10.708011 148.294061 148.294061 0 0 0 41.261538 5.472984 155.646896 155.646896 0 0 0 110.625656-45.44956 140.988818 140.988818 0 0 0 34.289433-55.443704l151.74442 150.863984a72.243384 72.243384 0 0 0 50.898748 20.940111 65.390257 65.390257 0 0 0 16.656907-1.903646 71.577108 71.577108 0 0 0 51.731593-46.877295l94.111523-280.549901a665.966928 665.966928 0 0 0 91.327441-75.669948c189.317643-188.461002 180.370505-533.734884 179.894593-548.250188z m-754.319921 286.736752a816.830912 816.830912 0 0 0-78.216075 198.455146l-128.972049-128.258182z m32.718924 499.707203a86.949053 86.949053 0 0 1-80.476655 21.891935s-2.236785-56.395527-15.514719-69.721053c0 0-43.284162 72.338567-88.04365 72.338566a43.807665 43.807665 0 0 1-7.852542-0.713867 141.964437 141.964437 0 0 0 24.033537-74.480169 125.759646 125.759646 0 0 1 23.985946-92.56481 130.566353 130.566353 0 0 1 78.40644-24.033537 91.398827 91.398827 0 0 1 65.509234 24.033537s50.065903 93.278678-0.023795 143.249398z m287.807554 95.42028l-138.537874-137.776414a731.833096 731.833096 0 0 0 206.474258-64.723981z m202.809737-384.060679a642.480689 642.480689 0 0 1-383.775132 179.180726l-26.032365-25.937183a294.82725 294.82725 0 0 0-17.370775-41.404312 72.029224 72.029224 0 0 0-12.587862-16.894862 151.958581 151.958581 0 0 0-67.650837-38.786797l-29.030609-28.792653A739.471478 739.471478 0 0 1 467.773533 224.468476a488.094959 488.094959 0 0 1 205.1655-114.694701 262.274895 262.274895 0 0 0 66.913174 183.46393 251.067176 251.067176 0 0 0 179.728024 64.72398h1.903647a505.656098 505.656098 0 0 1-118.668563 210.114981z m137.467072-282.453547c-63.034494 4.52116-117.217032-10.945967-149.531432-42.832046-31.314985-31.172211-48.328825-87.567738-45.782698-151.339896A1000.294842 1000.294842 0 0 1 937.046188 72.176757a72.766887 72.766887 0 0 0 22.819962-2.617514 933.833784 933.833784 0 0 1-19.583763 216.063876z" p-id="19981"></path></svg>